<svg width="4679" height="3010" viewBox="0 0 4679 3010" fill="none" xmlns="http://www.w3.org/2000/svg">
<path d="M400 925.065C584.096 925.065 733.335 775.826 733.335 591.73C733.335 407.634 584.096 258.395 400 258.395C215.904 258.395 66.665 407.634 66.665 591.73C66.665 775.826 215.904 925.065 400 925.065Z" stroke="#890BCD" stroke-opacity="0.25" stroke-width="2"/>
<path d="M1570.86 2232.94C1754.96 2232.94 1904.19 2083.71 1904.19 1899.61C1904.19 1715.51 1754.96 1566.27 1570.86 1566.27C1386.76 1566.27 1237.52 1715.51 1237.52 1899.61C1237.52 2083.71 1386.76 2232.94 1570.86 2232.94Z" stroke="#890BCD" stroke-opacity="0.25" stroke-width="2"/>
<path d="M1377.59 1130.44C1615.26 1130.44 1807.94 937.763 1807.94 700.09C1807.94 462.417 1615.26 269.745 1377.59 269.745C1139.92 269.745 947.245 462.417 947.245 700.09C947.245 937.763 1139.92 1130.44 1377.59 1130.44Z" stroke="#890BCD" stroke-opacity="0.25" stroke-width="2"/>
<path d="M3715.77 2471.52C4060.74 2471.52 4340.4 2191.86 4340.4 1846.89C4340.4 1501.92 4060.74 1222.27 3715.77 1222.27C3370.8 1222.27 3091.15 1501.92 3091.15 1846.89C3091.15 2191.86 3370.8 2471.52 3715.77 2471.52Z" stroke="#890BCD" stroke-opacity="0.25" stroke-width="2"/>
<path d="M1790.55 1566.06C2097.71 1566.06 2346.71 1317.05 2346.71 1009.89C2346.71 702.729 2097.71 453.725 1790.55 453.725C1483.39 453.725 1234.39 702.729 1234.39 1009.89C1234.39 1317.05 1483.39 1566.06 1790.55 1566.06Z" stroke="#890BCD" stroke-opacity="0.25" stroke-width="2"/>
<path d="M4234.27 2111.47C4478.91 2111.47 4677.23 1913.15 4677.23 1668.51C4677.23 1423.87 4478.91 1225.54 4234.27 1225.54C3989.63 1225.54 3791.3 1423.87 3791.3 1668.51C3791.3 1913.15 3989.63 2111.47 4234.27 2111.47Z" stroke="#890BCD" stroke-opacity="0.25" stroke-width="2"/>
<path d="M3594.18 2480.47C3721.06 2480.47 3823.92 2377.62 3823.92 2250.74C3823.92 2123.86 3721.06 2021 3594.18 2021C3467.3 2021 3364.45 2123.86 3364.45 2250.74C3364.45 2377.62 3467.3 2480.47 3594.18 2480.47Z" stroke="#890BCD" stroke-opacity="0.25" stroke-width="2"/>
<path d="M396.57 2107.41C614.75 2107.41 791.62 1930.54 791.62 1712.36C791.62 1494.18 614.75 1317.31 396.57 1317.31C178.39 1317.31 1.52002 1494.18 1.52002 1712.36C1.52002 1930.54 178.39 2107.41 396.57 2107.41Z" stroke="#890BCD" stroke-opacity="0.25" stroke-width="2"/>
<path d="M3091.11 2054.83C3278 2054.83 3429.5 1903.33 3429.5 1716.44C3429.5 1529.55 3278 1378.04 3091.11 1378.04C2904.22 1378.04 2752.72 1529.55 2752.72 1716.44C2752.72 1903.33 2904.22 2054.83 3091.11 2054.83Z" stroke="#890BCD" stroke-opacity="0.25" stroke-width="2"/>
<path d="M1469.71 2184.16C1631.07 2184.16 1761.89 2053.34 1761.89 1891.98C1761.89 1730.62 1631.07 1599.81 1469.71 1599.81C1308.35 1599.81 1177.54 1730.62 1177.54 1891.98C1177.54 2053.34 1308.35 2184.16 1469.71 2184.16Z" stroke="#890BCD" stroke-opacity="0.25" stroke-width="2"/>
<path d="M1225.01 2963.37C1565.58 2963.37 1841.68 2687.27 1841.68 2346.7C1841.68 2006.13 1565.58 1730.04 1225.01 1730.04C884.435 1730.04 608.345 2006.13 608.345 2346.7C608.345 2687.27 884.435 2963.37 1225.01 2963.37Z" stroke="#890BCD" stroke-opacity="0.25" stroke-width="2"/>
<path d="M1933.23 1838.5C2087.01 1838.5 2211.67 1713.84 2211.67 1560.06C2211.67 1406.28 2087.01 1281.62 1933.23 1281.62C1779.45 1281.62 1654.79 1406.28 1654.79 1560.06C1654.79 1713.84 1779.45 1838.5 1933.23 1838.5Z" stroke="#890BCD" stroke-opacity="0.25" stroke-width="2"/>
<path d="M2682.71 2785.97C2856.3 2785.97 2997.02 2645.24 2997.02 2471.65C2997.02 2298.06 2856.3 2157.33 2682.71 2157.33C2509.12 2157.33 2368.4 2298.06 2368.4 2471.65C2368.4 2645.24 2509.12 2785.97 2682.71 2785.97Z" stroke="#890BCD" stroke-opacity="0.25" stroke-width="2"/>
<path d="M924.46 2120.11C1247.81 2120.11 1509.94 1857.98 1509.94 1534.63C1509.94 1211.28 1247.81 949.15 924.46 949.15C601.108 949.15 338.98 1211.28 338.98 1534.63C338.98 1857.98 601.108 2120.11 924.46 2120.11Z" stroke="#890BCD" stroke-opacity="0.25" stroke-width="2"/>
<path d="M3411.24 1237.53C3642.72 1237.53 3830.37 1049.88 3830.37 818.4C3830.37 586.921 3642.72 399.27 3411.24 399.27C3179.76 399.27 2992.11 586.921 2992.11 818.4C2992.11 1049.88 3179.76 1237.53 3411.24 1237.53Z" stroke="#890BCD" stroke-opacity="0.25" stroke-width="2"/>
<path d="M2227.9 2381.46C2435.12 2381.46 2603.1 2213.48 2603.1 2006.26C2603.1 1799.04 2435.12 1631.06 2227.9 1631.06C2020.68 1631.06 1852.7 1799.04 1852.7 2006.26C1852.7 2213.48 2020.68 2381.46 2227.9 2381.46Z" stroke="#890BCD" stroke-opacity="0.25" stroke-width="2"/>
<path d="M2253.1 2460.65C2349.37 2460.65 2427.42 2382.61 2427.42 2286.34C2427.42 2190.07 2349.37 2112.02 2253.1 2112.02C2156.83 2112.02 2078.79 2190.07 2078.79 2286.34C2078.79 2382.61 2156.83 2460.65 2253.1 2460.65Z" stroke="#890BCD" stroke-opacity="0.25" stroke-width="2"/>
<path d="M3513.52 2473.46C3792.07 2473.46 4017.89 2247.65 4017.89 1969.1C4017.89 1690.55 3792.07 1464.73 3513.52 1464.73C3234.97 1464.73 3009.16 1690.55 3009.16 1969.1C3009.16 2247.65 3234.97 2473.46 3513.52 2473.46Z" stroke="#890BCD" stroke-opacity="0.25" stroke-width="2"/>
<path d="M3292.93 2286.51C3651.83 2286.51 3942.78 1995.56 3942.78 1636.66C3942.78 1277.75 3651.83 986.805 3292.93 986.805C2934.02 986.805 2643.07 1277.75 2643.07 1636.66C2643.07 1995.56 2934.02 2286.51 3292.93 2286.51Z" stroke="#890BCD" stroke-opacity="0.25" stroke-width="2"/>
<path d="M2228.03 2681.38C2327.67 2681.38 2408.45 2600.6 2408.45 2500.96C2408.45 2401.32 2327.67 2320.54 2228.03 2320.54C2128.39 2320.54 2047.61 2401.32 2047.61 2500.96C2047.61 2600.6 2128.39 2681.38 2228.03 2681.38Z" stroke="#890BCD" stroke-opacity="0.25" stroke-width="2"/>
<path d="M1493.44 2053.48C1693.33 2053.48 1855.37 1891.45 1855.37 1691.56C1855.37 1491.67 1693.33 1329.64 1493.44 1329.64C1293.55 1329.64 1131.52 1491.67 1131.52 1691.56C1131.52 1891.45 1293.55 2053.48 1493.44 2053.48Z" stroke="#890BCD" stroke-opacity="0.25" stroke-width="2"/>
<path d="M1311.48 1200.26C1614.41 1200.26 1859.99 954.691 1859.99 651.76C1859.99 348.829 1614.41 103.255 1311.48 103.255C1008.55 103.255 762.975 348.829 762.975 651.76C762.975 954.691 1008.55 1200.26 1311.48 1200.26Z" stroke="#890BCD" stroke-opacity="0.25" stroke-width="2"/>
<path d="M879.11 2263.47C1039.41 2263.47 1169.36 2133.51 1169.36 1973.21C1169.36 1812.91 1039.41 1682.96 879.11 1682.96C718.807 1682.96 588.855 1812.91 588.855 1973.21C588.855 2133.51 718.807 2263.47 879.11 2263.47Z" stroke="#890BCD" stroke-opacity="0.25" stroke-width="2"/>
<path d="M3839.58 2549.84C4023.21 2549.84 4172.07 2400.98 4172.07 2217.35C4172.07 2033.72 4023.21 1884.86 3839.58 1884.86C3655.95 1884.86 3507.09 2033.72 3507.09 2217.35C3507.09 2400.98 3655.95 2549.84 3839.58 2549.84Z" stroke="#890BCD" stroke-opacity="0.25" stroke-width="2"/>
<path d="M3293.09 2219.67C3426.09 2219.67 3533.91 2111.86 3533.91 1978.86C3533.91 1845.86 3426.09 1738.04 3293.09 1738.04C3160.09 1738.04 3052.27 1845.86 3052.27 1978.86C3052.27 2111.86 3160.09 2219.67 3293.09 2219.67Z" stroke="#890BCD" stroke-opacity="0.25" stroke-width="2"/>
<path d="M2093.96 2764.06C2257.03 2764.06 2389.23 2631.86 2389.23 2468.79C2389.23 2305.72 2257.03 2173.52 2093.96 2173.52C1930.89 2173.52 1798.69 2305.72 1798.69 2468.79C1798.69 2631.86 1930.89 2764.06 2093.96 2764.06Z" stroke="#890BCD" stroke-opacity="0.25" stroke-width="2"/>
<path d="M4138.02 1038.36C4424.44 1038.36 4656.63 806.171 4656.63 519.75C4656.63 233.33 4424.44 1.14014 4138.02 1.14014C3851.6 1.14014 3619.41 233.33 3619.41 519.75C3619.41 806.171 3851.6 1038.36 4138.02 1038.36Z" stroke="#890BCD" stroke-opacity="0.25" stroke-width="2"/>
<path d="M1825.11 2779.76C2053.76 2779.76 2239.12 2594.39 2239.12 2365.74C2239.12 2137.09 2053.76 1951.73 1825.11 1951.73C1596.46 1951.73 1411.09 2137.09 1411.09 2365.74C1411.09 2594.39 1596.46 2779.76 1825.11 2779.76Z" stroke="#890BCD" stroke-opacity="0.25" stroke-width="2"/>
<path d="M2646.54 1407.54C2811.77 1407.54 2945.72 1273.6 2945.72 1108.37C2945.72 943.14 2811.77 809.195 2646.54 809.195C2481.31 809.195 2347.36 943.14 2347.36 1108.37C2347.36 1273.6 2481.31 1407.54 2646.54 1407.54Z" stroke="#890BCD" stroke-opacity="0.25" stroke-width="2"/>
<path d="M3158.2 1226.22C3314.04 1226.22 3440.37 1099.89 3440.37 944.05C3440.37 788.212 3314.04 661.88 3158.2 661.88C3002.36 661.88 2876.03 788.212 2876.03 944.05C2876.03 1099.89 3002.36 1226.22 3158.2 1226.22Z" stroke="#890BCD" stroke-opacity="0.25" stroke-width="2"/>
<path d="M3425.02 1011.04C3621.16 1011.04 3780.16 852.046 3780.16 655.91C3780.16 459.774 3621.16 300.775 3425.02 300.775C3228.88 300.775 3069.89 459.774 3069.89 655.91C3069.89 852.046 3228.88 1011.04 3425.02 1011.04Z" stroke="#890BCD" stroke-opacity="0.25" stroke-width="2"/>
<path d="M698.3 2156.22C1007.89 2156.22 1258.86 1905.25 1258.86 1595.66C1258.86 1286.07 1007.89 1035.09 698.3 1035.09C388.708 1035.09 137.735 1286.07 137.735 1595.66C137.735 1905.25 388.708 2156.22 698.3 2156.22Z" stroke="#890BCD" stroke-opacity="0.25" stroke-width="2"/>
<path d="M896.38 1407.05C1142.48 1407.05 1341.98 1207.55 1341.98 961.45C1341.98 715.349 1142.48 515.845 896.38 515.845C650.279 515.845 450.775 715.349 450.775 961.45C450.775 1207.55 650.279 1407.05 896.38 1407.05Z" stroke="#890BCD" stroke-opacity="0.25" stroke-width="2"/>
<path d="M2661.03 1354.11C3008.62 1354.11 3290.4 1072.34 3290.4 724.75C3290.4 377.161 3008.62 95.3848 2661.03 95.3848C2313.44 95.3848 2031.67 377.161 2031.67 724.75C2031.67 1072.34 2313.44 1354.11 2661.03 1354.11Z" stroke="#890BCD" stroke-opacity="0.25" stroke-width="2"/>
<path d="M1081.84 2724.44C1221.34 2724.44 1334.42 2611.36 1334.42 2471.86C1334.42 2332.36 1221.34 2219.28 1081.84 2219.28C942.344 2219.28 829.26 2332.36 829.26 2471.86C829.26 2611.36 942.344 2724.44 1081.84 2724.44Z" stroke="#890BCD" stroke-opacity="0.25" stroke-width="2"/>
<path d="M2475.99 2563.01C2622.89 2563.01 2741.98 2443.92 2741.98 2297.02C2741.98 2150.12 2622.89 2031.04 2475.99 2031.04C2329.09 2031.04 2210.01 2150.12 2210.01 2297.02C2210.01 2443.92 2329.09 2563.01 2475.99 2563.01Z" stroke="#890BCD" stroke-opacity="0.25" stroke-width="2"/>
<path d="M2929.46 2595.48C3132.81 2595.48 3297.65 2430.64 3297.65 2227.29C3297.65 2023.94 3132.81 1859.1 2929.46 1859.1C2726.11 1859.1 2561.27 2023.94 2561.27 2227.29C2561.27 2430.64 2726.11 2595.48 2929.46 2595.48Z" stroke="#890BCD" stroke-opacity="0.25" stroke-width="2"/>
<path d="M2460.46 1268.44C2555.51 1268.44 2632.55 1191.39 2632.55 1096.34C2632.55 1001.29 2555.51 924.245 2460.46 924.245C2365.41 924.245 2288.36 1001.29 2288.36 1096.34C2288.36 1191.39 2365.41 1268.44 2460.46 1268.44Z" stroke="#890BCD" stroke-opacity="0.25" stroke-width="2"/>
<path d="M3787.96 2767.32C4034.72 2767.32 4234.76 2567.27 4234.76 2320.51C4234.76 2073.75 4034.72 1873.71 3787.96 1873.71C3541.2 1873.71 3341.16 2073.75 3341.16 2320.51C3341.16 2567.27 3541.2 2767.32 3787.96 2767.32Z" stroke="#890BCD" stroke-opacity="0.25" stroke-width="2"/>
<path d="M3883.16 1760.13C4099.43 1760.13 4274.75 1584.81 4274.75 1368.54C4274.75 1152.27 4099.43 976.955 3883.16 976.955C3666.89 976.955 3491.57 1152.27 3491.57 1368.54C3491.57 1584.81 3666.89 1760.13 3883.16 1760.13Z" stroke="#890BCD" stroke-opacity="0.25" stroke-width="2"/>
<path d="M695.17 3008.93C1026.39 3008.93 1294.91 2740.41 1294.91 2409.19C1294.91 2077.97 1026.39 1809.46 695.17 1809.46C363.946 1809.46 95.4351 2077.97 95.4351 2409.19C95.4351 2740.41 363.946 3008.93 695.17 3008.93Z" stroke="#890BCD" stroke-opacity="0.25" stroke-width="2"/>
<path d="M3913.15 2601.43C4119.38 2601.43 4286.56 2434.25 4286.56 2228.02C4286.56 2021.79 4119.38 1854.61 3913.15 1854.61C3706.92 1854.61 3539.74 2021.79 3539.74 2228.02C3539.74 2434.25 3706.92 2601.43 3913.15 2601.43Z" stroke="#890BCD" stroke-opacity="0.25" stroke-width="2"/>
<path d="M1447.43 2750.55C1718.96 2750.55 1939.07 2530.44 1939.07 2258.91C1939.07 1987.38 1718.96 1767.27 1447.43 1767.27C1175.9 1767.27 955.79 1987.38 955.79 2258.91C955.79 2530.44 1175.9 2750.55 1447.43 2750.55Z" stroke="#890BCD" stroke-opacity="0.25" stroke-width="2"/>
</svg>
