<svg xmlns="http://www.w3.org/2000/svg" version="1.1" xmlns:xlink="http://www.w3.org/1999/xlink" xmlns:svgjs="http://svgjs.dev/svgjs" viewBox="0 0 1422 800"><defs><linearGradient x1="50%" y1="0%" x2="50%" y2="100%" id="ccchaos-grad"><stop stop-color="hsl(206, 75%, 49%)" stop-opacity="1" offset="0%"></stop><stop stop-color="hsl(331, 90%, 56%)" stop-opacity="1" offset="100%"></stop></linearGradient></defs><g stroke-width="2" stroke="url(#ccchaos-grad)" fill="none" stroke-linecap="round"><path d="M714.93 -477.63Q729.04 -470.91 743.16 -464.11 757.24 -457.21 771.24 -450.26 785.1 -443.26 798.78 -436.25 812.23 -429.26 825.42 -422.32 838.3 -415.46 850.85 -408.68 863.03 -402.01 874.82 -395.42 886.21 -388.9 897.2 -382.43 907.78 -375.96 917.97 -369.45 927.77 -362.87 937.22 -356.17 946.35 -349.32 955.2 -342.29 963.81 -335.09 972.25 -327.72 980.56 -320.21 988.82 -312.6 997.08 -304.93 1005.42 -297.28 1013.91 -289.7 1022.6 -282.26 1031.58 -275.03 1040.89 -268.04 1050.6 -261.34 1060.76 -254.92 1071.42 -248.77 1082.6 -242.87 1094.35 -237.15 1106.67 -231.54 1119.58 -225.96 1133.07 -220.31 1147.13 -214.49 1161.73 -208.42 1176.84 -202.02 1192.42 -195.25 1208.4 -188.07 1224.72 -180.49 1241.31 -172.53 1258.1 -164.27 1274.99 -155.79 1291.89 -147.2 1308.73 -138.61 1325.39 -130.16 1341.81 -121.97 1357.88 -114.15 1373.52 -106.77 1388.66 -99.91 1403.23 -93.57 1417.15 -87.75 1430.39 -82.4 1442.91 -77.41 1454.67 -72.67 1465.66 -68.03 1475.89 -63.35 1485.36 -58.47 1494.11 -53.23 1502.17 -47.5 1492.3 -34.08 1480.95 -20.67 1468.91 -7.25 1457.02 6.16 1446.1 19.57 1436.89 32.99 1430.04 46.41 1426.03 59.82 1425.12 73.24 1427.38 86.66 1432.66 100.08 1440.59 113.49 1450.62 126.91 1462.06 140.33 1474.12 153.74 1485.96 167.16 1496.76 180.58 1505.79 193.99 1512.41 207.41 1516.17 220.83 1516.8 234.25 1514.27 247.66 1508.74 261.08 1500.61 274.5 1490.43 287.91 1478.91 301.33 1466.83 314.75 1455.05 328.16 1444.37 341.58 1435.53 355 1429.14 368.41 1425.64 381.83 1425.28 395.25 1428.08 408.67 1433.85 422.08 1442.18 435.5 1452.51 448.92 1464.11 462.33 1476.19 475.75 1487.91 489.17 1498.46 502.58 1507.12 516 1513.27 529.42 1516.5 542.83 1516.59 556.25 1513.52 569.67 1507.52 583.09 1498.99 596.5 1488.52 609.92 1476.84 623.34 1464.76 636.75 1453.11 650.17 1442.7 663.59 1434.24 677 1428.32 690.42 1425.36 703.84 1425.54 717.25 1428.87 730.67 1435.11 744.09 1443.84 757.51 1454.44 770.92 1466.18 784.34 1478.26 797.76 1489.83 811.17 1483.06 821.06 1475.77 832.7 1467.89 845.76 1459.37 859.84 1450.15 874.43 1440.21 889.01 1429.52 903.04 1418.08 916 1405.9 927.48 1393 937.11 1379.41 944.71 1365.18 950.18 1350.36 953.62 1335.03 955.22 1319.24 955.35 1303.09 954.46 1286.65 953.07 1270.02 951.76 1253.28 951.1 1236.51 951.61 1219.82 953.75 1203.28 957.86 1186.97 964.16 1170.97 972.7 1155.33 983.38 1140.12 995.97 1125.39 1010.08 1111.17 1025.22 1097.5 1040.82 1084.38 1056.27 1071.83 1070.99 1059.85 1084.4 1048.41 1096.05 1037.5 1105.59 1027.08 1112.8 1017.12 1117.65 1007.56 1120.25 998.35 1120.87 989.43 1119.94 980.74 1117.98 963.81 1113.86 946.97 1112.21 938.44 1114.22 929.77 1118.49 920.89 1125.21 911.76 1134.43 902.33 1145.99 892.57 1159.59 882.46 1174.77 871.97 1190.98 861.09 1207.56 849.83 1223.85 838.18 1239.19 826.15 1252.97 813.77 1264.71 801.06 1274.04 788.05 1280.78 774.77 1284.9 761.26 1286.59 747.57 1286.18 733.74 1284.16 719.82 1281.13 709.4 1264.11 698.72 1247.63 687.75 1232.34 676.5 1218.83 664.97 1207.53 653.16 1198.73 641.1 1192.54 628.8 1188.91 616.28 1187.58 603.57 1188.16 590.7 1190.11 577.7 1192.82 564.61 1195.63 551.46 1197.85 538.28 1198.87 525.11 1198.17 511.98 1195.32 498.91 1190.07 485.93 1182.33 473.06 1172.18 460.32 1159.87 447.72 1145.79 435.27 1130.46 422.97 1114.48 410.83 1098.47 398.83 1083.08 386.97 1068.88 375.24 1056.37 363.62 1045.93 352.09 1037.78 340.63 1031.99 329.22 1028.47 317.83 1026.97 306.43 1027.1 295.01 1028.36 283.54 1030.19 272.01 1031.97 260.38 1033.11 248.65 1033.08 236.81 1031.39 224.84 1027.73 212.75 1021.87 200.53 1013.79 188.18 1003.57 175.72 991.48 163.16 977.89 150.51 963.29 137.79 948.21 125.03 933.23 112.25 918.91 99.48 905.75 86.75 894.19 74.09 884.52 61.51 876.93 49.07 871.44 36.76 867.93 24.64 866.17 12.7 865.77 0.97 866.28 -10.53 867.18 -21.81 867.93 -32.87 868.02 -47.37 858.66 -47.64 836.39 -44.33 822.4 -41.34 808.42 -38.88 794.43 -37.12 780.45 -36.19 766.46 -36.13 752.48 -36.97 738.49 -38.64 724.51 -41.02 710.52 -43.96 696.54 -47.24 682.55 -50.64 668.57 -53.93 654.58 -56.88 640.6 -59.29 626.61 -60.98 612.62 -61.84 598.64 -61.82 584.65 -60.91 570.67 -59.17 556.68 -56.74 542.7 -53.76 528.71 -50.46 514.73 -47.06 500.74 -43.79 486.76 -40.88 472.77 -38.53 458.79 -36.9 444.8 -36.11 430.82 -36.21 416.83 -37.2 402.85 -39 388.86 -41.49 374.88 -44.5 360.89 -47.82 346.9 -51.22 332.92 -54.47 318.93 -57.34 304.95 -59.63 290.96 -61.19 276.98 -61.9 262.99 -61.73 249.01 -60.67 235.02 -58.8 221.04 -56.26 207.05 -53.21 193.07 -49.87 179.08 -46.48 165.1 -43.25 151.11 -40.43 137.13 -38.19 123.14 -36.7 109.16 -36.07 95.17 -36.32 81.18 -37.45 67.2 -39.38 53.21 -41.98 39.23 -45.06 25.24 -48.41 11.26 -51.8 -2.72 -55 -16.7 -57.78 -30.69 -46.73 -39.04 -35.43 -47.79 -23.89 -56.81 -12.12 -65.91 -0.12 -74.96 12.06 -83.8 24.44 -92.3 36.97 -100.36 49.63 -107.91 62.39 -114.92 75.22 -121.4 88.09 -127.41 100.98 -133.01 113.84 -138.32 126.66 -143.45 139.41 -148.53 152.08 -153.68 164.64 -159.03 177.07 -164.67 189.39 -170.66 201.56 -177.06 213.61 -183.87 225.52 -191.08 237.32 -198.64 249 -206.49 260.59 -214.53 272.1 -222.67 283.55 -230.82 294.97 -238.89 306.39 -246.79 317.81 -254.45 329.27 -261.85 340.79 -268.95 352.4 -275.76 364.1 -282.31 375.92 -288.63 387.87 -294.78 399.96 -300.83 412.19 -306.85 424.57 -312.89 437.09 -319.03 449.74 -325.3 462.52 -331.74 475.39 -338.36 488.36 -345.16 501.38 -352.12 514.43 -359.23 527.49 -366.43 540.52 -373.68 553.49 -380.95 566.37 -388.19 579.12 -395.36 591.72 -402.46 604.14 -409.45 616.35 -416.35 628.33 -423.16 640.06 -429.9 651.53 -436.61 662.74 -443.31 673.68 -450.03 684.35 -456.81 694.77 -463.67 709.94 -474.12 714.93 -477.63" stroke-dasharray="2 0" transform="rotate(0, 711, 400)" opacity="0.05"></path><path d="M726.86 -422.67Q738.85 -416.08 750.61 -409.43 762.1 -402.75 773.31 -396.06 784.22 -389.4 794.83 -382.79 805.13 -376.27 815.13 -369.85 824.83 -363.55 834.24 -357.39 843.38 -351.34 852.27 -345.4 860.95 -339.55 869.44 -333.74 877.79 -327.93 886.04 -322.09 894.23 -316.14 902.4 -310.07 910.62 -303.82 918.92 -297.37 927.36 -290.7 935.99 -283.81 944.85 -276.72 954 -269.45 963.47 -262.05 973.29 -254.59 983.51 -247.11 994.15 -239.7 1005.24 -232.42 1016.77 -225.34 1028.77 -218.51 1041.22 -211.98 1054.13 -205.77 1067.47 -199.87 1081.23 -194.29 1095.36 -188.97 1109.84 -183.86 1124.61 -178.88 1139.63 -173.94 1154.84 -168.96 1170.17 -163.84 1185.57 -158.48 1200.97 -152.8 1216.3 -146.76 1231.49 -140.29 1246.46 -133.4 1261.17 -126.08 1275.53 -118.39 1289.5 -110.38 1303.01 -102.15 1316.03 -93.79 1328.5 -85.44 1340.39 -77.2 1351.69 -69.21 1362.37 -61.56 1372.43 -54.34 1381.87 -47.63 1390.71 -41.45 1398.97 -35.81 1406.68 -30.67 1420.45 -21.73 1433.05 -13.46 1422.23 -0.66 1411.48 12.12 1401.46 24.91 1392.78 37.7 1385.96 50.5 1381.43 63.29 1379.46 76.08 1380.17 88.87 1383.51 101.67 1389.28 114.46 1397.13 127.25 1406.58 140.04 1417.06 152.84 1427.94 165.63 1438.54 178.42 1448.23 191.21 1456.42 204.01 1462.6 216.8 1466.4 229.59 1467.6 242.39 1466.12 255.18 1462.04 267.97 1455.62 280.76 1447.24 293.56 1437.43 306.35 1426.76 319.14 1415.9 331.93 1405.5 344.73 1396.19 357.52 1388.54 370.31 1383.02 383.1 1379.96 395.9 1379.55 408.69 1381.81 421.48 1386.6 434.27 1393.63 447.07 1402.49 459.86 1412.62 472.65 1423.41 485.45 1434.2 498.24 1444.35 511.03 1453.23 523.82 1460.3 536.62 1465.13 549.41 1467.43 562.2 1467.06 574.99 1464.04 587.79 1458.55 600.58 1450.94 613.37 1441.65 626.16 1431.26 638.96 1420.4 651.75 1409.73 664.54 1399.89 677.33 1391.49 690.13 1385.04 702.92 1380.92 715.71 1379.39 728.5 1380.55 741.3 1384.31 754.09 1390.46 766.88 1398.61 779.68 1408.28 792.47 1418.88 805.26 1413.18 818.63 1407.36 832.03 1401.35 845.01 1395.06 857.18 1388.42 868.18 1381.38 877.71 1373.88 885.57 1365.87 891.65 1357.31 895.96 1348.18 898.62 1338.45 899.82 1328.11 899.89 1317.17 899.2 1305.64 898.18 1293.54 897.28 1280.89 896.95 1267.73 897.61 1254.1 899.63 1240.05 903.28 1225.64 908.76 1210.93 916.14 1195.98 925.37 1180.86 936.31 1165.63 948.68 1150.36 962.15 1135.11 976.29 1119.96 990.63 1104.95 1004.69 1090.16 1018.01 1075.62 1030.14 1061.39 1040.74 1047.51 1049.53 1034.01 1056.35 1020.92 1061.16 1008.26 1064.05 996.03 1065.2 984.26 1064.94 972.92 1063.65 962.02 1061.81 951.54 1059.91 941.44 1058.46 931.72 1057.94 922.32 1058.8 913.21 1061.38 904.36 1065.94 895.7 1072.6 887.21 1081.37 878.83 1092.12 870.5 1104.6 862.2 1118.46 853.85 1133.26 845.43 1148.48 836.89 1163.6 828.2 1178.08 819.31 1191.42 810.2 1203.2 800.84 1213.06 791.22 1220.79 781.32 1226.29 771.12 1229.6 760.64 1230.89 749.86 1230.46 738.8 1228.72 727.47 1226.15 715.68 1210.5 703.68 1195.26 691.48 1180.98 679.11 1168.13 666.6 1157.07 653.98 1148.09 641.29 1141.31 628.56 1136.75 615.82 1134.26 603.1 1133.61 590.43 1134.41 577.84 1136.23 565.34 1138.54 552.97 1140.82 540.73 1142.54 528.64 1143.21 516.72 1142.41 504.95 1139.8 493.36 1135.17 481.93 1128.43 470.66 1119.61 459.54 1108.88 448.56 1096.51 437.7 1082.88 426.95 1068.43 416.29 1053.67 405.69 1039.09 395.14 1025.2 384.62 1012.43 374.1 1001.17 363.56 991.69 352.98 984.17 342.35 978.65 331.66 975.06 320.87 973.21 310 972.81 299.03 973.48 287.95 974.78 276.76 976.23 265.47 977.36 254.08 977.71 242.6 976.87 231.04 974.52 219.41 970.42 207.74 964.45 196.03 956.6 184.31 946.96 172.6 935.77 160.92 923.3 149.29 909.96 137.73 896.15 126.26 882.34 114.9 868.98 103.67 856.47 92.58 845.19 81.63 835.41 70.85 827.32 60.22 821.01 49.76 816.45 39.46 813.51 29.31 811.96 19.31 811.5 5.88 805.59 4.76 786.57 6.82 773.7 8.36 760.84 9.31 747.97 9.6 735.11 9.22 722.24 8.18 709.38 6.56 696.51 4.44 683.65 1.96 670.79 -0.72 657.92 -3.45 645.06 -6.07 632.19 -8.41 619.33 -10.32 606.46 -11.71 593.6 -12.47 580.73 -12.56 567.87 -11.98 555 -10.76 542.14 -8.98 529.27 -6.75 516.41 -4.19 503.55 -1.47 490.68 1.23 477.82 3.79 464.95 6.02 452.09 7.79 439.22 9 426.36 9.56 413.49 9.46 400.63 8.69 387.76 7.3 374.9 5.37 362.03 3.03 349.17 0.41 336.31 -2.32 323.44 -5 310.58 -7.48 297.71 -9.59 284.85 -11.2 271.98 -12.23 259.12 -12.6 246.25 -12.3 233.39 -11.34 220.52 -9.79 207.66 -7.72 194.79 -5.28 181.93 -2.61 169.06 0.11 156.2 2.75 143.34 5.14 130.47 7.11 117.61 8.57 104.74 9.41 91.88 9.59 79.01 9.09 66.15 7.95 53.28 6.23 40.42 4.05 27.55 1.52 14.69 -1.18 1.82 -3.9 -11.03 6.05 -19.82 16.16 -28.42 26.44 -36.7 36.89 -44.55 47.51 -51.91 58.31 -58.73 69.27 -65.01 80.4 -70.77 91.67 -76.06 103.07 -80.98 114.59 -85.63 126.2 -90.13 137.89 -94.59 149.64 -99.14 161.42 -103.9 173.2 -108.95 184.98 -114.37 196.73 -120.21 208.43 -126.49 220.06 -133.19 231.62 -140.29 243.08 -147.73 254.45 -155.42 265.71 -163.29 276.86 -171.24 287.91 -179.16 298.86 -186.97 309.71 -194.59 320.48 -201.95 331.18 -209.01 341.82 -215.74 352.42 -222.15 363.01 -228.25 373.59 -234.07 384.2 -239.67 394.85 -245.12 405.56 -250.49 416.36 -255.84 427.25 -261.25 438.27 -266.78 449.41 -272.47 460.69 -278.36 472.13 -284.48 483.72 -290.82 495.46 -297.37 507.36 -304.12 519.41 -311.01 531.6 -318.02 543.91 -325.08 556.33 -332.16 568.84 -339.2 581.41 -346.17 594.02 -353.03 606.64 -359.77 619.24 -366.38 631.79 -372.86 644.26 -379.22 656.61 -385.49 668.83 -391.68 680.87 -397.84 692.72 -403.99 704.35 -410.17 721.3 -419.53 726.86 -422.67" stroke-dasharray="3 3" transform="rotate(8.4, 711, 400)" opacity="0.11"></path><path d="M722.72 -367.71Q731.95 -361.28 740.97 -354.82 749.78 -348.36 758.41 -341.95 766.88 -335.6 775.2 -329.35 783.4 -323.23 791.52 -317.26 799.58 -311.45 807.61 -305.8 815.66 -300.31 823.75 -294.96 831.92 -289.71 840.21 -284.54 848.65 -279.39 857.28 -274.21 866.13 -268.97 875.23 -263.6 884.61 -258.05 894.28 -252.31 904.28 -246.32 914.61 -240.09 925.3 -233.61 936.33 -226.89 947.73 -219.96 959.47 -212.87 971.56 -205.66 983.98 -198.4 996.7 -191.17 1009.72 -184.02 1022.98 -177.03 1036.47 -170.27 1050.14 -163.78 1063.95 -157.61 1077.86 -151.78 1091.82 -146.29 1105.78 -141.13 1119.69 -136.27 1133.5 -131.66 1147.16 -127.22 1160.62 -122.88 1173.82 -118.55 1186.74 -114.13 1199.31 -109.55 1211.51 -104.71 1223.3 -99.53 1234.66 -93.97 1245.55 -87.99 1255.96 -81.56 1265.88 -74.71 1275.31 -67.45 1284.24 -59.86 1292.7 -52 1300.68 -43.97 1308.23 -35.88 1315.37 -27.84 1322.13 -19.95 1328.55 -12.34 1334.7 -5.09 1340.61 1.7 1351.95 13.51 1363.15 23.76 1354.28 35.96 1346.56 48.15 1340.4 60.35 1336.13 72.55 1333.97 84.75 1334.04 96.95 1336.33 109.15 1340.73 121.35 1346.99 133.54 1354.79 145.74 1363.72 157.94 1373.29 170.14 1383.01 182.34 1392.36 194.54 1400.83 206.74 1408 218.93 1413.46 231.13 1416.95 243.33 1418.26 255.53 1417.33 267.73 1414.21 279.93 1409.06 292.13 1402.16 304.32 1393.88 316.52 1384.65 328.72 1374.96 340.92 1365.32 353.12 1356.25 365.32 1348.23 377.52 1341.67 389.71 1336.94 401.91 1334.28 414.11 1333.83 426.31 1335.61 438.51 1339.53 450.71 1345.39 462.91 1352.87 475.11 1361.57 487.3 1371.04 499.5 1380.77 511.7 1390.25 523.9 1398.97 536.1 1406.48 548.3 1412.37 560.5 1416.33 572.7 1418.15 584.89 1417.74 597.09 1415.12 609.29 1410.42 621.49 1403.9 633.69 1395.9 645.89 1386.84 658.09 1377.21 670.28 1367.52 682.48 1358.27 694.68 1349.97 706.88 1343.04 719.08 1337.86 731.28 1334.7 743.48 1333.73 755.68 1335 767.88 1338.44 780.07 1343.88 792.27 1351.01 804.47 1344.91 814.27 1339 822.81 1327.52 834.85 1316.03 842.52 1303.94 844.2 1291.13 843.75 1276.67 843.05 1261 844.25 1252.39 846.71 1243.3 850.59 1233.74 856.02 1223.7 863.03 1213.18 871.59 1202.21 881.58 1190.79 892.8 1178.95 904.98 1166.72 917.79 1154.14 930.89 1141.24 943.88 1128.07 956.41 1114.67 968.11 1101.08 978.68 1087.37 987.85 1073.56 995.46 1059.73 1001.4 1045.9 1005.65 1032.14 1008.31 1018.48 1009.52 1004.97 1009.55 991.64 1008.68 978.54 1007.29 965.69 1005.77 953.13 1004.51 940.87 1003.9 928.93 1004.31 917.32 1006.03 906.05 1009.31 895.13 1014.31 884.54 1021.08 874.29 1029.62 864.35 1039.79 854.72 1051.38 845.37 1064.11 836.27 1077.62 827.41 1091.53 818.75 1105.42 810.25 1118.86 801.89 1131.44 793.63 1142.83 785.44 1152.71 777.28 1160.87 769.12 1167.18 752.62 1173.41 735.83 1174.8 727.21 1173.33 718.43 1171.19 706.15 1156.86 693.89 1142.85 681.67 1129.59 669.52 1117.45 657.46 1106.77 645.51 1097.76 633.69 1090.58 622.02 1085.27 610.52 1081.79 599.18 1079.99 588.02 1079.64 577.04 1080.41 566.24 1081.95 555.61 1083.85 545.16 1085.69 534.86 1087.06 524.72 1087.56 514.71 1086.87 504.82 1084.71 495.03 1080.88 485.32 1075.29 475.68 1067.94 466.09 1058.89 456.52 1048.34 446.95 1036.53 437.37 1023.79 427.77 1010.46 418.11 996.96 408.4 983.68 398.61 970.99 388.74 959.26 378.78 948.77 368.73 939.75 358.57 932.35 348.31 926.64 337.96 922.57 327.51 920.04 316.98 918.85 306.37 918.72 295.69 919.35 284.96 920.38 274.19 921.42 263.39 922.11 252.59 922.1 241.79 921.07 231.01 918.77 220.27 915.02 209.59 909.71 198.97 902.81 188.43 894.4 177.99 884.61 167.64 873.65 157.4 861.8 147.28 849.37 137.27 836.72 127.38 824.19 117.6 812.13 107.92 800.86 98.34 790.64 88.85 781.7 79.43 774.17 70.08 768.12 60.76 763.54 51.46 760.35 53.03 748.58 54.22 736.81 54.97 725.04 55.25 713.27 55.04 701.51 54.35 689.74 53.21 677.97 51.69 666.2 49.87 654.44 47.84 642.67 45.72 630.9 43.61 619.13 41.62 607.36 39.87 595.6 38.44 583.83 37.41 572.06 36.83 560.29 36.74 548.53 37.14 536.76 38.01 524.99 39.3 513.22 40.95 501.45 42.86 489.69 44.94 477.92 47.07 466.15 49.15 454.38 51.06 442.62 52.7 430.85 53.98 419.08 54.84 407.31 55.23 395.55 55.13 383.78 54.55 372.01 53.51 360.24 52.07 348.47 50.32 336.71 48.33 324.94 46.21 313.17 44.09 301.4 42.06 289.64 40.25 277.87 38.73 266.1 37.61 254.33 36.92 242.57 36.72 230.8 37.01 219.03 37.77 207.26 38.97 195.5 40.54 183.73 42.4 171.96 44.45 160.19 46.58 148.43 48.68 136.66 50.63 124.89 52.35 113.12 53.72 101.36 54.68 89.59 55.18 77.82 55.2 66.05 54.73 54.29 53.79 42.52 52.44 30.75 50.75 18.98 48.8 7.22 58.08 0.34 67.43 -5.99 76.86 -11.78 86.38 -17.07 96.02 -21.89 105.77 -26.33 115.63 -30.47 125.63 -34.42 135.74 -38.3 145.97 -42.23 156.32 -46.3 166.77 -50.62 177.32 -55.27 187.95 -60.32 198.65 -65.79 209.41 -71.71 220.21 -78.07 231.03 -84.83 241.87 -91.93 252.69 -99.32 263.49 -106.89 274.25 -114.58 284.96 -122.27 295.61 -129.88 306.18 -137.32 316.66 -144.54 327.06 -151.46 337.36 -158.05 347.57 -164.29 357.67 -170.18 367.69 -175.75 377.62 -181.03 387.47 -186.06 397.26 -190.92 406.98 -195.67 416.67 -200.39 426.33 -205.14 435.98 -209.99 445.64 -215 455.33 -220.22 465.07 -225.67 474.87 -231.37 484.75 -237.33 494.74 -243.54 504.84 -249.96 515.08 -256.57 525.45 -263.32 535.99 -270.15 546.68 -277.02 557.55 -283.88 568.58 -290.68 579.78 -297.37 591.14 -303.93 602.66 -310.33 614.32 -316.56 626.12 -322.63 638.03 -328.54 650.03 -334.31 662.11 -339.96 674.24 -345.54 686.4 -351.07 698.55 -356.59 716.69 -364.92 722.72 -367.71" stroke-dasharray="2 2" transform="rotate(16.8, 711, 400)" opacity="0.18"></path><path d="M706.69 -312.74Q714.52 -306.52 722.35 -300.28 730.2 -294.07 738.1 -287.92 746.06 -281.87 754.12 -275.95 762.3 -270.19 770.62 -264.6 779.11 -259.2 787.79 -254 796.68 -248.97 805.79 -244.12 815.13 -239.41 824.73 -234.8 834.59 -230.26 844.71 -225.73 855.11 -221.17 865.77 -216.52 876.69 -211.74 887.87 -206.77 899.29 -201.58 910.94 -196.15 922.8 -190.45 934.85 -184.48 947.07 -178.25 959.42 -171.78 971.88 -165.09 984.41 -158.25 996.99 -151.3 1009.57 -144.3 1022.13 -137.32 1034.61 -130.43 1047 -123.7 1059.25 -117.19 1071.32 -110.95 1083.19 -105.02 1094.81 -99.42 1106.17 -94.19 1117.22 -89.29 1127.96 -84.73 1138.35 -80.45 1148.39 -76.41 1158.05 -72.54 1167.32 -68.77 1176.22 -65.02 1184.73 -61.19 1192.86 -57.2 1200.61 -52.98 1214.93 -43.36 1228.32 -32.55 1234.54 -26.39 1240.55 -19.81 1246.38 -12.85 1252.08 -5.57 1257.69 1.96 1263.26 9.66 1268.84 17.44 1274.46 25.18 1280.2 32.79 1286.08 40.17 1292.16 47.23 1298.49 53.89 1293.42 65.26 1289.95 76.64 1288.24 88.02 1288.37 99.4 1290.34 110.78 1294.05 122.16 1299.33 133.54 1305.95 144.92 1313.6 156.29 1321.94 167.67 1330.57 179.05 1339.11 190.43 1347.16 201.81 1354.36 213.19 1360.37 224.57 1364.93 235.94 1367.82 247.32 1368.92 258.7 1368.16 270.08 1365.59 281.46 1361.33 292.84 1355.56 304.22 1348.56 315.6 1340.64 326.98 1332.16 338.35 1323.52 349.73 1315.1 361.11 1307.3 372.49 1300.46 383.87 1294.91 395.25 1290.89 406.63 1288.6 418.01 1288.12 429.38 1289.5 440.76 1292.65 452.14 1297.45 463.52 1303.66 474.9 1311.02 486.28 1319.17 497.66 1327.74 509.04 1336.35 520.41 1344.61 531.79 1352.12 543.17 1358.56 554.55 1363.62 565.93 1367.07 577.31 1368.76 588.69 1368.61 600.07 1366.62 611.45 1362.89 622.82 1357.59 634.2 1350.96 645.58 1343.3 656.96 1334.96 668.34 1326.33 679.72 1317.79 691.1 1309.75 702.48 1302.56 713.86 1296.56 725.24 1292.02 736.61 1289.15 747.99 1288.07 759.37 1286.45 778.07 1277.03 787.57 1264.02 788.99 1251.73 788.85 1240.17 788.71 1228.77 790.13 1217.15 796.31 1205.15 806.19 1198.82 813.41 1192.25 821.87 1185.39 831.45 1178.24 841.97 1170.76 853.22 1162.94 864.93 1154.75 876.83 1146.2 888.64 1137.28 900.05 1127.98 910.81 1118.32 920.65 1108.29 929.39 1097.92 936.87 1087.21 942.98 1076.2 947.69 1064.9 951.03 1053.34 953.09 1041.55 954.02 1029.57 954.03 1017.41 953.36 1005.13 952.3 992.75 951.15 980.31 950.22 967.84 949.8 955.38 950.18 942.97 951.61 930.63 954.27 918.39 958.33 906.29 963.85 894.35 970.85 882.59 979.27 871.04 989.01 859.71 999.86 848.61 1011.61 837.76 1023.96 827.16 1036.62 816.81 1049.27 806.73 1061.56 796.89 1073.2 787.31 1083.9 777.96 1093.41 768.84 1101.54 759.93 1108.18 751.21 1113.25 734.35 1118.16 717.9 1119.18 709.84 1117.97 701.85 1116.23 691.02 1103.17 680.38 1090.37 669.91 1078.14 659.64 1066.79 649.56 1056.57 639.66 1047.7 629.94 1040.3 620.4 1034.46 611.02 1030.17 601.79 1027.36 592.7 1025.9 583.73 1025.59 574.88 1026.18 566.11 1027.38 548.79 1030.18 531.59 1031.95 523 1031.5 514.4 1029.9 505.77 1026.98 497.09 1022.63 488.35 1016.79 479.55 1009.5 470.66 1000.85 461.68 990.99 452.6 980.12 443.42 968.49 434.15 956.38 424.77 944.11 415.29 931.97 405.71 920.26 396.04 909.26 386.29 899.22 376.47 890.33 366.57 882.73 356.62 876.5 346.63 871.67 336.61 868.18 326.57 865.94 316.53 864.78 306.49 864.48 296.48 864.81 286.49 865.48 276.56 866.21 266.67 866.71 256.85 866.7 247.1 865.94 237.42 864.21 227.83 861.35 218.32 857.24 208.9 851.82 199.56 845.1 190.3 837.15 181.11 828.07 172 818.06 162.94 807.3 153.94 796.05 144.98 784.58 136.04 773.15 127.12 762.02 118.2 751.46 109.26 741.69 100.29 732.88 100.77 721.96 100.91 711.04 100.72 700.11 100.19 689.19 99.35 678.27 98.25 667.35 96.93 656.43 95.45 645.5 93.88 634.58 92.3 623.66 90.76 612.74 89.36 601.81 88.14 590.89 87.16 579.97 86.48 569.05 86.11 558.13 86.09 547.2 86.4 536.28 87.03 525.36 87.96 514.44 89.14 503.52 90.52 492.6 92.04 481.67 93.62 470.75 95.2 459.83 96.7 448.91 98.05 437.99 99.19 427.06 100.07 416.14 100.65 405.22 100.9 394.3 100.82 383.38 100.39 372.45 99.66 361.53 98.64 350.61 97.38 339.69 95.95 328.77 94.4 317.84 92.81 306.92 91.25 296 89.8 285.08 88.51 274.16 87.45 263.23 86.67 252.31 86.2 241.39 86.06 230.47 86.26 219.55 86.79 208.63 87.63 197.7 88.73 186.78 90.06 175.86 91.54 164.94 93.1 154.02 94.69 143.09 96.22 132.17 97.63 121.25 98.84 110.33 99.81 99.41 100.5 88.49 100.86 77.56 100.88 66.64 100.57 55.72 103.88 37.28 116.67 25.97 125.54 22.43 134.43 19.05 143.37 15.71 152.37 12.31 161.44 8.76 170.58 4.96 179.8 0.85 189.11 -3.64 198.51 -8.55 207.99 -13.9 217.56 -19.69 227.21 -25.89 236.94 -32.46 246.75 -39.36 256.61 -46.5 266.54 -53.82 276.5 -61.22 286.5 -68.62 296.52 -75.93 306.55 -83.08 316.57 -90 326.57 -96.64 336.54 -102.94 346.47 -108.9 356.35 -114.5 366.16 -119.76 375.9 -124.69 385.56 -129.34 395.13 -133.76 404.61 -138.02 413.99 -142.17 423.27 -146.29 432.46 -150.44 441.56 -154.69 450.57 -159.11 459.5 -163.72 468.35 -168.58 477.15 -173.7 485.89 -179.1 494.6 -184.77 503.28 -190.7 511.96 -196.85 520.65 -203.2 529.37 -209.69 538.13 -216.28 546.95 -222.91 555.85 -229.54 564.85 -236.11 573.96 -242.58 583.19 -248.91 592.57 -255.07 602.09 -261.04 611.78 -266.82 621.63 -272.4 631.66 -277.81 641.87 -283.04 652.26 -288.14 662.82 -293.13 673.55 -298.05 684.44 -302.93 701.09 -310.28 706.69 -312.74" stroke-dasharray="2 1" transform="rotate(25.200000000000003, 711, 400)" opacity="0.24"></path><path d="M695.01 -257.78Q703.24 -251.79 711.63 -245.81 720.19 -239.87 728.91 -234 737.82 -228.25 746.92 -222.63 756.21 -217.19 765.7 -211.94 775.39 -206.89 785.27 -202.05 795.34 -197.42 805.59 -192.98 816.02 -188.71 826.61 -184.58 837.35 -180.56 848.23 -176.6 859.22 -172.66 870.31 -168.69 881.48 -164.64 892.71 -160.46 903.97 -156.11 915.23 -151.54 926.48 -146.74 937.69 -141.67 948.83 -136.33 959.87 -130.7 970.79 -124.82 981.57 -118.69 992.19 -112.34 1002.61 -105.83 1012.82 -99.2 1022.81 -92.51 1032.54 -85.81 1042.02 -79.18 1051.22 -72.67 1060.14 -66.34 1068.77 -60.25 1077.11 -54.43 1085.15 -48.94 1092.89 -43.78 1107.41 -34.66 1121.12 -26.5 1133.67 -19.55 1145.66 -12.98 1156.96 -6.31 1168.05 0.85 1179.1 9.48 1190.33 19.27 1202.23 31.1 1214.72 44.06 1221.39 51.08 1228.35 58.32 1235.62 65.7 1243.23 73.12 1242.41 83.45 1243.09 93.78 1245.25 104.11 1248.8 114.43 1253.61 124.76 1259.48 135.09 1266.2 145.42 1273.49 155.75 1281.07 166.07 1288.65 176.4 1295.93 186.73 1302.63 197.06 1308.49 207.39 1313.27 217.71 1316.8 228.04 1318.93 238.37 1319.58 248.7 1318.73 259.03 1316.4 269.35 1312.7 279.68 1307.76 290.01 1301.78 300.34 1294.98 310.67 1287.64 320.99 1280.05 331.32 1272.48 341.65 1265.26 351.98 1258.64 362.31 1252.9 372.63 1248.25 382.96 1244.88 393.29 1242.91 403.62 1242.43 413.95 1243.46 424.28 1245.94 434.6 1249.8 444.93 1254.87 455.26 1260.96 465.59 1267.83 475.92 1275.21 486.24 1282.82 496.57 1290.36 506.9 1297.53 517.23 1304.06 527.56 1309.69 537.89 1314.2 548.21 1317.41 558.54 1319.21 568.87 1319.52 579.2 1318.32 589.53 1315.67 599.85 1311.67 610.18 1306.47 620.51 1300.28 630.84 1293.34 641.17 1285.91 651.5 1278.3 661.82 1270.79 672.15 1263.67 682.48 1257.24 692.81 1251.72 703.14 1247.35 713.47 1239.07 728.93 1225.41 733.98 1209.77 734.76 1195.11 737.2 1181.88 743.84 1169.34 753.58 1163.39 760.3 1157.59 768.03 1151.88 776.68 1146.24 786.11 1140.63 796.16 1135.03 806.65 1129.38 817.36 1123.68 828.09 1117.87 838.61 1111.94 848.71 1105.86 858.19 1099.59 866.88 1093.13 874.62 1086.44 881.32 1072.19 890.77 1057.15 896.88 1040.7 898.33 1023.41 897.88 1014.28 897.08 1004.88 896.29 995.23 895.75 985.34 895.7 975.23 896.33 964.91 897.83 954.4 900.34 943.73 903.99 932.92 908.83 921.99 914.88 910.97 922.13 899.87 930.49 888.73 939.85 877.58 950.05 866.42 960.89 855.3 972.17 844.22 983.63 833.21 995.04 822.3 1006.15 811.5 1016.72 800.82 1026.53 790.29 1035.4 779.91 1043.17 769.7 1049.73 759.66 1055.03 749.8 1059.03 740.13 1061.79 730.64 1063.37 721.34 1063.92 712.22 1063.61 703.29 1062.65 694.53 1061.26 686.16 1049.45 677.93 1037.83 669.83 1026.64 661.86 1016.12 653.98 1006.47 646.19 997.87 638.46 990.43 630.79 984.25 615.54 976.32 600.3 971.93 584.93 972.07 569.39 973.76 553.47 975.64 537.27 976.21 529 975.2 520.62 973.19 512.13 970.06 503.53 965.75 494.83 960.21 486.03 953.5 477.13 945.66 468.14 936.82 459.06 927.12 449.91 916.76 440.69 905.94 431.42 894.88 422.1 883.81 412.74 872.98 403.35 862.59 393.96 852.85 384.56 843.93 375.16 835.97 365.79 829.08 356.44 823.32 347.13 818.69 337.86 815.18 328.65 812.7 319.49 811.15 310.39 810.38 301.36 810.22 292.39 810.45 283.49 810.88 265.93 811.22 248.55 810.23 239.96 808.52 231.42 805.88 222.92 802.24 214.44 797.54 205.99 791.77 197.55 784.97 189.11 777.21 180.65 768.6 172.18 759.28 163.68 749.42 155.13 739.21 146.54 728.85 146.3 718.57 145.86 708.29 145.22 698 144.43 687.72 143.49 677.44 142.46 667.16 141.38 656.88 140.27 646.59 139.2 636.31 138.19 626.03 137.3 615.75 136.54 605.47 135.96 595.18 135.58 584.9 135.41 574.62 135.45 564.34 135.71 554.06 136.18 543.77 136.83 533.49 137.65 523.21 138.59 512.93 139.63 502.65 140.72 492.36 141.82 482.08 142.89 471.8 143.89 461.52 144.77 451.24 145.5 440.95 146.06 430.67 146.42 420.39 146.57 410.11 146.5 399.83 146.22 389.54 145.73 379.26 145.05 368.98 144.22 358.7 143.26 348.42 142.22 338.13 141.12 327.85 140.02 317.57 138.96 307.29 137.98 297.01 137.11 286.73 136.39 276.44 135.86 266.16 135.52 255.88 135.4 245.6 135.49 235.32 135.8 225.03 136.31 214.75 137 204.47 137.85 194.19 138.82 183.91 139.88 173.62 140.97 163.34 142.07 153.06 143.13 142.78 144.1 132.5 144.95 122.22 145.65 111.93 146.16 101.65 146.47 91.37 150.73 74.51 163.3 64.91 171.69 61.69 180.08 58.19 188.47 54.35 196.87 50.13 205.3 45.5 213.77 40.44 222.27 34.97 230.83 29.1 239.44 22.88 248.11 16.35 256.85 9.57 265.66 2.61 274.53 -4.44 283.47 -11.52 292.48 -18.55 301.55 -25.45 310.68 -32.17 319.87 -38.63 329.1 -44.81 338.38 -50.65 347.68 -56.16 357.02 -61.31 366.36 -66.11 375.71 -70.6 385.05 -74.8 394.38 -78.75 403.68 -82.52 412.94 -86.16 422.15 -89.73 431.3 -93.3 440.38 -96.92 449.39 -100.66 458.32 -104.57 467.15 -108.69 475.9 -113.06 484.54 -117.69 493.09 -122.61 501.53 -127.8 509.87 -133.27 518.12 -138.98 526.27 -144.91 534.34 -151.01 542.32 -157.26 550.23 -163.58 558.07 -169.95 565.86 -176.3 573.62 -182.59 581.34 -188.77 589.05 -194.81 596.76 -200.69 604.49 -206.36 612.26 -211.83 620.07 -217.08 627.94 -222.13 635.9 -226.98 643.95 -231.66 652.11 -236.19 660.4 -240.6 668.82 -244.92 677.39 -249.21 690.56 -255.63 695.01 -257.78" stroke-dasharray="2 0" transform="rotate(33.6, 711, 400)" opacity="0.30"></path><path d="M699.52 -202.83Q708.6 -197.12 717.82 -191.42 727.16 -185.77 736.63 -180.2 746.2 -174.75 755.87 -169.44 765.63 -164.3 775.47 -159.34 785.38 -154.6 795.33 -150.06 805.32 -145.74 815.32 -141.63 825.33 -137.71 835.32 -133.96 845.29 -130.36 855.2 -126.86 865.04 -123.44 874.8 -120.05 884.46 -116.64 894 -113.18 903.41 -109.61 912.67 -105.9 921.77 -102 930.69 -97.89 939.43 -93.53 947.97 -88.92 956.31 -84.03 964.44 -78.87 972.35 -73.44 980.05 -67.77 987.52 -61.88 994.78 -55.81 1001.82 -49.59 1008.65 -43.27 1015.27 -36.91 1021.7 -30.55 1033.95 -18.18 1045.73 -6.32 1056.9 4.26 1067.83 13.91 1078.58 21.93 1089.35 29.06 1100.42 35.05 1111.81 40.66 1123.97 46.27 1136.73 52.26 1150.66 59.47 1165.39 67.69 1173.25 72.45 1181.4 77.6 1189.86 83.14 1198.62 89.04 1201.27 98.31 1204.98 107.58 1209.63 116.84 1215.06 126.11 1221.1 135.37 1227.53 144.64 1234.17 153.9 1240.78 163.17 1247.16 172.44 1253.08 181.7 1258.37 190.97 1262.84 200.23 1266.35 209.5 1268.78 218.76 1270.05 228.03 1270.13 237.3 1269 246.56 1266.71 255.83 1263.34 265.09 1258.98 274.36 1253.79 283.62 1247.94 292.89 1241.61 302.16 1235.01 311.42 1228.37 320.69 1221.89 329.95 1215.8 339.22 1210.28 348.49 1205.52 357.75 1201.69 367.02 1198.89 376.28 1197.23 385.55 1196.76 394.81 1197.49 404.08 1199.4 413.35 1202.43 422.61 1206.47 431.88 1211.41 441.14 1217.06 450.41 1223.26 459.68 1229.79 468.94 1236.44 478.21 1243 487.47 1249.24 496.74 1254.97 506.01 1259.99 515.27 1264.15 524.54 1267.3 533.8 1269.34 543.07 1270.21 552.33 1269.88 561.6 1268.35 570.87 1265.68 580.13 1261.95 589.4 1257.3 598.66 1251.86 607.93 1245.82 617.2 1239.37 626.46 1232.74 635.73 1226.13 644.99 1219.76 654.26 1213.84 663.53 1208.56 672.79 1204.1 682.06 1194.33 683.98 1184.84 686.61 1175.65 690.04 1166.75 694.3 1158.14 699.43 1149.83 705.41 1141.81 712.21 1134.08 719.76 1126.62 727.99 1119.42 736.77 1112.48 745.99 1105.77 755.48 1099.28 765.11 1092.99 774.7 1086.89 784.09 1080.94 793.14 1075.13 801.69 1069.44 809.61 1058.34 822.71 1047.37 833.19 1036.39 839.16 1025.27 842.66 1013.7 843.05 1001.75 842.4 989.01 841.67 975.73 841.91 961.46 845.23 946.56 851.09 938.74 855.67 930.71 861.23 922.48 867.75 914.05 875.17 905.43 883.43 896.62 892.39 887.65 901.94 878.51 911.91 869.23 922.13 859.81 932.43 850.28 942.61 840.64 952.51 830.91 961.93 821.12 970.74 811.27 978.78 801.38 985.95 791.47 992.15 781.56 997.33 771.65 1001.47 761.78 1004.58 751.95 1006.7 742.17 1007.92 732.47 1008.35 722.84 1008.11 713.31 1007.37 703.88 1006.31 697.2 995.71 690.52 985.23 683.81 975.08 677.07 965.43 670.28 956.43 663.44 948.22 656.52 940.92 649.53 934.59 635.23 925.54 620.63 919.51 605.49 917.77 590.02 917.88 574 919.43 557.67 920.77 540.87 920.06 523.84 917.24 515.21 914.33 506.52 910.47 497.78 905.64 489.01 899.83 480.22 893.1 471.41 885.52 462.59 877.18 453.77 868.22 444.97 858.77 436.18 849 427.43 839.07 418.7 829.16 410.02 819.43 401.39 810.05 392.8 801.16 384.27 792.91 375.8 785.4 367.39 778.71 359.04 772.92 350.76 768.04 334.39 761.4 318.2 757.2 302.25 756.07 286.41 755.98 270.69 756.08 255.01 755.34 239.3 751.88 223.53 746.19 215.58 741.9 207.6 736.75 199.57 730.76 191.48 723.99 191.03 714.38 190.49 704.76 189.89 695.15 189.24 685.54 188.56 675.93 187.89 666.32 187.23 656.71 186.61 647.1 186.06 637.49 185.58 627.88 185.2 618.27 184.93 608.66 184.77 599.05 184.74 589.43 184.83 579.82 185.04 570.21 185.36 560.6 185.78 550.99 186.3 541.38 186.88 531.77 187.52 522.16 188.18 512.55 188.86 502.94 189.53 493.33 190.16 483.72 190.74 474.11 191.24 464.49 191.65 454.88 191.96 445.27 192.16 435.66 192.23 426.05 192.18 416.44 192.01 406.83 191.73 397.22 191.34 387.61 190.85 378 190.29 368.39 189.67 358.78 189.01 349.17 188.33 339.56 187.66 329.94 187.01 320.33 186.42 310.72 185.89 301.11 185.44 291.5 185.1 281.89 184.86 272.28 184.75 262.67 184.76 253.06 184.89 243.45 185.14 233.84 185.49 224.23 185.95 214.62 186.49 205.01 187.09 195.4 187.74 185.79 188.42 176.17 189.09 166.56 189.75 156.95 190.36 147.34 190.92 137.73 191.39 128.12 195.88 111.76 207.9 100.74 215.77 96.08 223.62 91.02 231.45 85.59 239.27 79.82 247.09 73.75 254.92 67.43 262.75 60.92 270.61 54.28 278.5 47.57 286.42 40.86 294.38 34.23 302.38 27.72 310.44 21.4 318.55 15.31 326.71 9.5 334.94 4 343.22 -1.17 351.56 -6.01 359.97 -10.52 368.43 -14.72 376.94 -18.61 385.5 -22.25 394.11 -25.66 402.76 -28.9 411.45 -32.02 420.16 -35.07 428.89 -38.12 437.64 -41.21 446.39 -44.4 455.13 -47.74 463.86 -51.26 472.57 -55.01 481.25 -59 489.88 -63.27 498.47 -67.81 506.99 -72.62 515.45 -77.7 523.84 -83.02 532.14 -88.56 540.35 -94.29 548.47 -100.17 556.5 -106.15 564.42 -112.19 572.24 -118.24 579.96 -124.27 587.57 -130.22 595.07 -136.06 602.48 -141.75 609.79 -147.27 617 -152.59 631.14 -162.49 645.07 -171.75 658.73 -180.06 672.31 -187.93 692.7 -199.11 699.52 -202.83" stroke-dasharray="1 3" transform="rotate(42, 711, 400)" opacity="0.37"></path><path d="M715.64 -147.86Q733.27 -137.1 750.87 -126.53 768.34 -116.38 785.6 -106.86 802.56 -98.11 819.13 -90.2 835.24 -83.08 850.82 -76.64 865.83 -70.67 880.22 -64.89 893.98 -59.01 907.11 -52.71 919.64 -45.73 931.59 -37.86 943.04 -28.97 954.06 -19.07 964.74 -8.26 975.2 3.23 985.54 15.13 995.91 27.06 1006.44 38.67 1017.25 49.59 1028.47 59.54 1040.23 68.34 1052.63 75.92 1065.78 82.34 1079.75 87.81 1094.58 92.63 1110.32 97.21 1126.97 101.97 1144.5 107.33 1162.88 113.69 1172.59 130.46 1183.75 147.24 1195.14 164.02 1205.55 180.8 1213.86 197.57 1219.16 214.35 1220.89 231.13 1218.86 247.91 1213.29 264.68 1204.78 281.46 1194.25 298.24 1182.83 315.02 1171.75 331.79 1162.2 348.57 1155.21 365.35 1151.54 382.13 1151.57 398.91 1155.31 415.68 1162.35 432.46 1171.94 449.24 1183.04 466.02 1194.46 482.8 1204.96 499.57 1213.42 516.35 1218.93 533.13 1220.89 549.91 1219.09 566.68 1213.73 583.46 1205.38 600.24 1194.94 617.02 1183.54 633.8 1172.4 650.58 1152.77 663.05 1133.8 677.74 1115.58 694 1098.18 711.02 1081.65 727.9 1065.99 743.73 1051.2 757.69 1037.26 769.19 1024.1 777.86 1011.65 783.65 999.81 786.82 988.48 787.93 977.54 787.75 966.87 787.22 956.33 787.32 945.79 788.98 935.15 792.99 924.27 799.85 913.06 809.81 901.43 822.74 889.3 838.22 876.63 855.53 863.37 873.74 849.5 891.82 835.04 908.72 819.99 923.54 804.4 935.56 788.31 944.38 771.79 949.92 754.92 952.47 737.77 952.65 720.43 951.35 707.28 932.56 693.69 914.69 679.65 898.71 665.17 885.41 650.26 875.25 634.97 868.37 619.32 864.54 603.38 863.22 587.21 863.6 570.86 864.69 554.4 865.45 537.91 864.88 521.44 862.14 505.05 856.64 488.8 848.08 472.72 836.5 456.85 822.27 441.21 806.02 425.81 788.62 410.65 771.02 395.73 754.19 381.01 739.02 366.47 726.17 352.07 716.09 337.77 708.9 323.53 704.39 309.29 702.11 295.02 701.33 280.66 701.22 266.18 700.84 251.54 699.32 236.73 695.93 236.12 678.46 235.5 660.98 234.93 643.51 234.47 626.04 234.18 608.56 234.08 591.09 234.19 573.62 234.49 556.15 234.95 538.67 235.52 521.2 236.15 503.73 236.75 486.25 237.28 468.78 237.66 451.31 237.86 433.84 237.87 416.36 237.67 398.89 237.28 381.42 236.76 363.95 236.16 346.47 235.53 329 234.96 311.53 234.49 294.05 234.19 276.58 234.08 259.11 234.17 241.64 234.46 224.16 234.92 206.69 235.48 189.22 236.11 171.75 236.72 154.27 237.25 136.8 251.86 125.4 266.33 113.21 280.69 100.64 294.97 88.13 309.23 76.1 323.52 64.9 337.87 54.79 352.33 45.91 366.95 38.23 381.74 31.63 396.75 25.86 411.98 20.59 427.44 15.45 443.12 10.06 459 4.1 475.07 -2.69 491.27 -10.47 507.57 -19.3 523.92 -29.09 540.24 -39.69 556.49 -50.83 572.59 -62.22 588.49 -73.54 604.13 -84.51 619.45 -94.88 634.4 -104.48 648.97 -113.25 663.12 -121.19 676.85 -128.42 690.16 -135.12 709.36 -144.69 715.64 -147.86" stroke-dasharray="1 1" transform="rotate(50.400000000000006, 711, 400)" opacity="0.43"></path><path d="M727.05 -92.9Q741.31 -82.86 755.2 -72.98 768.7 -63.49 781.78 -54.55 794.42 -46.3 806.63 -38.82 818.4 -32.12 829.75 -26.13 840.72 -20.72 851.34 -15.72 861.67 -10.89 871.77 -5.97 881.7 -0.71 891.55 5.11 901.39 11.71 911.31 19.19 921.4 27.61 931.73 36.93 942.41 47.05 953.49 57.76 965.06 68.83 977.17 79.95 989.87 90.82 1003.2 101.16 1017.18 110.71 1031.82 119.29 1047.12 126.79 1063.05 133.19 1079.57 138.59 1096.62 143.17 1114.14 147.18 1132.05 150.94 1141.81 166.31 1151.28 181.68 1159.64 197.04 1166.14 212.41 1170.23 227.78 1171.55 243.15 1169.97 258.52 1165.65 273.89 1158.95 289.26 1150.47 304.62 1140.94 319.99 1131.19 335.36 1122.08 350.73 1114.41 366.1 1108.83 381.47 1105.85 396.83 1105.72 412.2 1108.45 427.57 1113.81 442.94 1121.32 458.31 1130.33 473.67 1140.05 489.04 1149.64 504.41 1158.25 519.78 1165.14 535.15 1169.69 550.51 1171.52 565.88 1170.47 581.25 1166.62 596.62 1160.31 611.99 1152.1 627.35 1142.7 642.72 1124.45 657.72 1106.38 672.54 1088.58 686.55 1071.13 699.18 1054.13 709.98 1037.64 718.65 1021.71 725.09 1006.39 729.36 991.7 731.75 977.65 732.7 964.22 732.79 951.41 732.67 939.17 733.05 927.46 734.56 916.22 737.78 905.38 743.11 894.88 750.81 884.62 760.89 874.53 773.19 864.53 787.32 854.53 802.74 844.45 818.79 834.22 834.74 823.77 849.86 813.05 863.49 802 875.09 790.59 884.3 778.78 890.94 766.56 895.1 753.92 897.04 740.87 897.26 727.41 896.39 713.14 879.82 698.57 863.88 683.74 849.29 668.7 836.62 653.52 826.28 638.25 818.49 622.94 813.2 607.65 810.19 592.43 809.01 577.32 809.07 562.37 809.69 547.61 810.12 533.05 809.67 518.73 807.71 504.66 803.75 490.82 797.5 477.22 788.86 463.84 777.94 450.67 765.04 437.67 750.65 424.82 735.36 412.09 719.85 399.43 704.79 386.81 690.83 374.19 678.49 361.54 668.15 348.83 660.01 336.02 654.09 323.1 650.19 310.04 647.96 296.84 646.89 283.48 646.4 283.46 630.98 283.44 615.56 283.43 600.14 283.42 584.72 283.42 569.3 283.42 553.88 283.43 538.46 283.45 523.04 283.46 507.62 283.48 492.2 283.5 476.78 283.52 461.36 283.53 445.94 283.54 430.52 283.55 415.1 283.55 399.68 283.54 384.26 283.53 368.84 283.52 353.42 283.5 338 283.48 322.58 283.46 307.16 283.44 291.74 283.43 276.32 283.42 260.89 283.42 245.47 283.42 230.05 283.43 214.63 283.44 199.21 283.46 183.79 283.48 168.37 283.5 152.95 296.69 141.37 309.75 130.24 322.67 119.85 335.5 110.42 348.25 102.06 360.95 94.81 373.64 88.59 386.36 83.25 399.13 78.55 412 74.22 424.99 69.95 438.15 65.43 451.49 60.41 465.03 54.65 478.79 48.01 492.78 40.42 507 31.91 521.43 22.57 536.07 12.58 550.89 2.14 565.85 -8.47 580.92 -19.02 596.07 -29.25 611.23 -38.95 626.36 -47.97 641.41 -56.22 656.32 -63.68 671.03 -70.41 685.51 -76.52 699.7 -82.16 720.3 -90.23 727.05 -92.9" stroke-dasharray="2 2" transform="rotate(58.800000000000004, 711, 400)" opacity="0.49"></path><path d="M722.18 -37.94Q732.63 -28.69 742.81 -19.58 752.75 -10.8 762.46 -2.47 771.99 5.27 781.36 12.35 790.64 18.73 799.85 24.42 809.05 29.49 818.3 34.03 827.65 38.21 837.14 42.2 846.84 46.2 856.79 50.41 867.04 55.03 877.63 60.22 888.61 66.12 899.99 72.81 911.81 80.33 924.09 88.66 936.83 97.7 950.02 107.33 963.67 117.35 977.76 127.57 992.25 137.73 1007.11 147.62 1022.3 157 1037.77 165.69 1053.45 173.55 1069.29 180.47 1085.21 186.45 1101.15 191.51 1108.49 205.46 1114.63 219.41 1119.13 233.37 1121.68 247.32 1122.11 261.27 1120.39 275.22 1116.64 289.17 1111.11 303.13 1104.19 317.08 1096.36 331.03 1088.16 344.98 1080.15 358.93 1072.89 372.88 1066.89 386.84 1062.54 400.79 1060.17 414.74 1059.92 428.69 1061.82 442.64 1065.74 456.59 1071.41 470.55 1078.42 484.5 1086.31 498.45 1094.52 512.4 1102.48 526.35 1109.65 540.3 1115.53 554.25 1119.71 568.21 1121.91 582.16 1121.97 596.11 1119.88 610.06 1115.8 624.01 1110.01 637.96 1094.48 648.25 1078.79 657.05 1063.02 664.21 1047.23 669.67 1031.49 673.52 1015.88 675.95 1000.45 677.25 985.27 677.79 970.38 678.01 955.84 678.35 941.68 679.29 927.93 681.24 914.6 684.55 901.72 689.49 889.28 696.21 877.28 704.74 865.71 714.99 854.54 726.74 843.75 739.66 833.3 753.35 823.15 767.34 813.26 781.13 803.58 794.24 794.06 806.22 784.65 816.71 775.29 825.43 765.95 832.24 756.56 837.11 747.09 840.17 737.49 841.65 727.72 841.92 717.75 841.42 703.71 827 689.7 813 675.77 799.91 661.95 788.14 648.28 778.03 634.78 769.78 621.49 763.46 608.41 759.02 595.56 756.27 582.94 754.91 570.57 754.54 558.42 754.7 546.5 754.91 534.79 754.67 523.26 753.54 511.91 751.14 500.7 747.15 489.6 741.42 478.6 733.88 467.65 724.6 456.73 713.77 445.81 701.68 434.86 688.7 423.86 675.28 412.79 661.86 401.62 648.9 390.34 636.82 378.95 625.96 367.42 616.59 355.76 608.86 343.98 602.81 332.07 598.36 332.4 584.92 332.63 571.48 332.75 558.04 332.74 544.6 332.62 531.16 332.38 517.72 332.05 504.28 331.64 490.84 331.19 477.39 330.72 463.95 330.27 450.51 329.87 437.07 329.55 423.63 329.33 410.19 329.22 396.75 329.23 383.31 329.37 369.86 329.62 356.42 329.96 342.98 330.37 329.54 330.82 316.1 331.29 302.66 331.74 289.22 332.13 275.78 332.44 262.33 332.66 248.89 332.75 235.45 332.73 222.01 332.58 208.57 332.33 195.13 331.98 181.69 331.56 168.24 343.3 160.21 354.92 153.13 366.41 147.01 377.78 141.76 389.05 137.26 400.22 133.32 411.32 129.74 422.37 126.28 433.4 122.71 444.42 118.79 455.46 114.34 466.56 109.2 477.74 103.27 489.03 96.5 500.46 88.92 512.04 80.59 523.81 71.64 535.77 62.22 547.95 52.52 560.34 42.75 572.95 33.11 585.79 23.79 598.84 14.96 612.09 6.72 625.52 -0.82 639.11 -7.66 652.84 -13.82 666.66 -19.36 680.55 -24.39 694.46 -29.05 715.27 -35.72 722.18 -37.94" stroke-dasharray="1 0" transform="rotate(67.2, 711, 400)" opacity="0.56"></path><path d="M705.98 17.01Q714.43 25.38 722.89 33.64 731.38 41.66 739.95 49.31 748.61 56.51 757.41 63.17 766.37 69.25 775.52 74.72 784.89 79.6 794.5 83.94 804.36 87.82 814.51 91.34 824.95 94.62 835.69 97.81 846.74 101.06 858.1 104.51 869.77 108.32 881.73 112.6 893.98 117.46 906.49 122.97 919.25 129.18 932.22 136.08 945.38 143.65 958.7 151.81 972.13 160.45 985.63 169.44 999.16 178.63 1012.68 187.86 1026.15 196.93 1039.51 205.7 1052.72 214 1065.74 221.7 1069.54 233.94 1071.96 246.19 1072.87 258.44 1072.23 270.69 1070.06 282.94 1066.48 295.19 1061.69 307.44 1055.93 319.69 1049.51 331.94 1042.77 344.19 1036.07 356.43 1029.77 368.68 1024.19 380.93 1019.64 393.18 1016.35 405.43 1014.49 417.68 1014.18 429.93 1015.42 442.18 1018.15 454.43 1022.22 466.68 1027.42 478.93 1033.47 491.18 1040.05 503.43 1046.81 515.67 1053.4 527.92 1059.47 540.17 1064.68 552.42 1068.78 564.67 1071.53 576.92 1072.8 589.17 1072.52 601.42 1070.69 613.67 1058.49 617.26 1045.99 619.79 1033.24 621.43 1020.27 622.41 1007.12 622.99 993.85 623.45 980.49 624.09 967.08 625.19 953.68 627.03 940.32 629.84 927.04 633.79 913.88 639.01 900.88 645.55 888.07 653.4 875.47 662.48 863.12 672.63 851.02 683.64 839.2 695.25 827.67 707.18 816.44 719.1 805.5 730.7 794.85 741.67 784.49 751.75 774.4 760.71 764.58 768.37 754.99 774.64 745.63 779.49 736.47 782.96 727.48 785.17 718.63 786.32 709.89 786.65 701.24 786.47 689.66 774.12 678.29 762.04 667.14 750.54 656.2 739.9 645.49 730.38 634.99 722.13 624.7 715.27 614.59 709.83 604.67 705.76 594.9 702.95 585.28 701.22 575.78 700.32 566.38 699.99 557.06 699.92 547.79 699.78 538.55 699.27 529.32 698.11 520.08 696.04 510.81 692.87 501.49 688.45 492.1 682.73 482.62 675.69 473.05 667.4 463.37 658.01 453.59 647.7 443.68 636.72 433.65 625.32 423.51 613.81 413.25 602.47 402.88 591.59 392.4 581.41 381.84 572.16 382.07 560.39 382.1 548.62 381.94 536.86 381.61 525.09 381.1 513.32 380.46 501.55 379.71 489.78 378.9 478.01 378.07 466.24 377.26 454.47 376.52 442.7 375.88 430.94 375.38 419.17 375.04 407.4 374.89 395.63 374.93 383.86 375.15 372.09 375.56 360.32 376.12 348.55 376.81 336.79 377.58 325.02 378.41 313.25 379.23 301.48 380.02 289.71 380.73 277.94 381.32 266.18 381.76 254.41 382.03 242.64 382.11 230.87 382 219.1 381.7 207.33 381.23 195.56 391.61 191.77 401.87 188.47 412.03 185.52 422.08 182.76 432.02 179.99 441.84 177.07 451.56 173.82 461.18 170.1 470.72 165.81 480.18 160.86 489.58 155.22 498.95 148.87 508.28 141.85 517.62 134.23 526.96 126.11 536.35 117.61 545.8 108.86 555.33 100.03 564.97 91.26 574.73 82.69 584.63 74.47 594.69 66.69 604.92 59.45 615.35 52.8 625.97 46.75 636.79 41.3 647.82 36.41 659.06 31.99 670.51 27.97 682.15 24.21 699.98 18.8 705.98 17.01" stroke-dasharray="3 1" transform="rotate(75.6, 711, 400)" opacity="0.62"></path><path d="M694.85 71.97Q703.15 79.4 711.62 86.73 720.25 93.89 729.06 100.79 738.05 107.36 747.23 113.53 756.6 119.25 766.18 124.49 775.94 129.24 785.9 133.51 796.04 137.32 806.36 140.72 816.85 143.76 827.5 146.53 838.29 149.11 849.21 151.6 860.24 154.11 871.35 156.75 882.53 159.6 893.76 162.77 905.01 166.34 916.26 170.38 927.48 174.94 938.64 180.06 949.73 185.73 960.71 191.96 971.56 198.7 982.25 205.91 992.77 213.5 1003.1 221.38 1013.2 229.46 1023.07 237.61 1023.54 247.93 1022.93 258.25 1021.27 268.56 1018.63 278.88 1015.1 289.2 1010.83 299.51 1005.98 309.83 1000.74 320.15 995.32 330.46 989.92 340.78 984.76 351.1 980.04 361.41 975.94 371.73 972.62 382.05 970.21 392.36 968.81 402.68 968.47 413 969.2 423.31 970.98 433.63 973.73 443.95 977.35 454.26 981.69 464.58 986.6 474.9 991.87 485.22 997.3 495.53 1002.68 505.85 1007.8 516.17 1012.46 526.48 1016.48 536.8 1019.7 547.12 1018.13 562.92 1004.99 569.06 995.46 569.9 985.68 571.09 975.67 572.79 965.45 575.15 955.03 578.27 944.44 582.24 933.7 587.12 922.84 592.93 911.87 599.66 900.81 607.24 889.71 615.59 878.57 624.59 867.43 634.09 856.3 643.94 845.21 653.94 834.19 663.91 823.25 673.65 812.41 683 801.69 691.76 791.1 699.81 780.66 707.01 770.39 713.28 760.28 718.56 750.35 722.85 740.6 726.16 731.03 728.56 721.65 730.15 712.46 731.06 703.44 731.45 694.61 731.5 686.31 721.15 678.15 710.96 670.11 701.12 662.19 691.8 654.36 683.17 646.61 675.36 638.93 668.47 631.29 662.54 616.07 654.12 600.85 648.44 585.46 646.22 569.89 645.16 553.92 644.2 537.67 642.21 529.36 640.21 520.94 637.43 512.41 633.8 503.78 629.26 495.04 623.8 486.2 617.43 477.26 610.22 468.23 602.25 459.12 593.64 449.94 584.54 440.7 575.1 431.4 565.49 431.14 555.19 430.69 544.9 430.05 534.6 429.26 524.31 428.33 514.02 427.32 503.72 426.25 493.43 425.18 483.13 424.13 472.84 423.16 462.55 422.3 452.25 421.58 441.96 421.04 431.66 420.69 421.37 420.54 411.08 420.61 400.78 420.89 390.49 421.36 380.2 422.02 369.9 422.83 359.61 423.77 349.31 424.79 339.02 425.86 328.73 426.94 318.43 427.97 308.14 428.93 297.85 429.78 287.55 430.48 277.26 431 266.97 431.33 256.67 435.96 240.14 449.51 231.55 458.47 228.9 467.34 225.86 476.12 222.37 484.8 218.35 493.37 213.79 501.85 208.66 510.23 202.97 518.51 196.76 526.69 190.06 534.77 182.96 542.78 175.54 550.7 167.88 558.56 160.09 566.36 152.28 574.11 144.54 581.83 136.99 589.53 129.71 597.23 122.78 604.94 116.26 612.67 110.2 620.45 104.63 628.28 99.56 636.19 94.97 644.19 90.83 652.29 87.1 660.52 83.71 668.87 80.59 677.37 77.65 690.44 73.39 694.85 71.97" stroke-dasharray="2 1" transform="rotate(84, 711, 400)" opacity="0.68"></path><path d="M700.07 126.92Q716.79 139.65 733.91 151.91 751.39 163.29 769.17 173.45 787.16 182.19 805.29 189.44 823.46 195.3 841.58 200.04 859.52 204.05 877.2 207.81 894.51 211.84 911.36 216.64 927.67 222.66 943.36 230.2 958.38 239.41 972.7 250.27 968.6 267.1 962.34 283.94 954.58 300.77 946.17 317.61 938.01 334.44 930.98 351.28 925.83 368.11 923.13 384.95 923.15 401.78 925.91 418.62 931.09 435.45 938.15 452.29 946.33 469.13 954.73 485.96 962.47 502.8 968.7 519.63 955.68 524.59 941.98 531.78 927.59 541.4 912.52 553.37 896.82 567.35 880.54 582.81 863.74 599 846.52 615.11 828.95 630.32 811.14 643.88 793.19 655.24 775.19 664.05 757.25 670.23 739.45 674.02 721.86 675.89 704.57 676.55 692.44 659.78 680.23 643.77 667.86 629.3 655.26 616.98 642.38 607.18 629.18 599.99 615.62 595.23 601.69 592.44 587.4 590.97 572.74 590.05 557.75 588.84 542.46 586.55 526.91 582.54 511.15 576.34 495.23 567.73 479.22 556.77 477.45 539.29 475.26 521.8 472.87 504.32 470.55 486.83 468.55 469.35 467.07 451.86 466.29 434.38 466.28 416.9 467.05 399.41 468.51 381.93 470.51 364.45 472.83 346.96 475.21 329.48 477.41 311.99 479.19 294.51 480.36 277.03 496.08 269.85 511.62 260.99 526.94 250.49 541.98 238.63 556.72 225.77 571.13 212.41 585.19 199.06 598.91 186.25 612.29 174.42 625.35 163.87 638.14 154.8 650.71 147.22 663.11 140.97 675.42 135.78 693.89 129.09 700.07 126.92" stroke-dasharray="0 2" transform="rotate(92.39999999999999, 711, 400)" opacity="0.75"></path><path d="M716.36 181.89Q730.45 192.41 744.51 202.66 758.5 212.39 772.38 221.41 786.1 229.52 799.6 236.64 812.86 242.72 825.83 247.78 838.48 251.95 850.78 255.39 862.7 258.32 874.23 261.01 885.37 263.75 896.09 266.83 906.43 270.52 916.38 275.06 911.09 288.48 905.1 301.91 898.84 315.34 892.72 328.77 887.17 342.2 882.58 355.62 879.26 369.05 877.44 382.48 877.26 395.91 878.71 409.33 881.7 422.76 886.03 436.19 891.39 449.62 897.42 463.04 903.69 476.47 909.78 489.9 900.52 499.49 890.96 510.31 881.06 522.1 870.8 534.53 860.17 547.22 849.16 559.76 837.76 571.76 825.98 582.85 813.84 592.71 801.36 601.13 788.56 607.98 775.47 613.22 762.14 616.96 748.59 619.4 734.88 620.82 721.05 621.58 710.48 608.46 699.63 595.7 688.49 583.7 677.06 572.81 665.35 563.29 653.37 555.31 641.14 548.92 628.68 544.08 616.02 540.61 603.18 538.28 590.2 536.75 577.11 535.64 563.95 534.55 550.75 533.09 537.54 530.88 524.35 527.62 522.02 513.65 519.62 499.68 517.31 485.71 515.26 471.74 513.6 457.77 512.45 443.8 511.9 429.83 511.97 415.86 512.66 401.89 513.93 387.93 515.69 373.96 517.82 359.99 520.16 346.02 522.56 332.05 524.85 318.08 526.87 304.11 539.96 294.3 553 283.8 565.96 272.87 578.82 261.81 591.55 250.9 604.1 240.42 616.45 230.61 628.59 221.66 640.48 213.7 652.12 206.79 663.49 200.91 674.59 195.96 685.42 191.81 695.98 188.24 711.33 183.45 716.36 181.89" stroke-dasharray="0 2" transform="rotate(100.80000000000001, 711, 400)" opacity="0.81"></path><path d="M727.21 236.85Q736.68 244.99 746 253.01 755.14 260.78 764.1 268.2 772.88 275.17 781.47 281.62 789.87 287.48 798.07 292.72 813.8 301.01 828.99 307.57 848.15 318.97 848.64 336.23 844.51 346.48 840.74 356.74 837.46 367 834.81 377.26 832.88 387.52 831.76 397.77 831.49 408.03 832.07 418.29 833.49 428.54 835.69 438.8 838.59 449.06 842.06 459.32 845.98 469.57 850.2 479.83 843.47 489.1 836.69 498.35 829.83 507.41 822.88 516.14 815.81 524.39 808.61 532.02 801.26 538.93 793.76 545.06 786.09 550.34 778.24 554.76 761.91 560.81 745.03 564.78 736.27 565.85 727.34 566.62 717.79 557 708.1 547.53 698.29 538.36 688.38 529.64 678.37 521.53 668.28 514.11 658.14 507.48 647.95 501.69 637.74 496.75 627.52 492.64 617.3 489.32 607.11 486.7 596.95 484.68 586.85 483.14 570.77 476.26 562.79 460.34 561.05 450.07 559.61 439.8 558.51 429.53 557.81 419.26 557.51 408.99 557.65 398.73 558.21 388.46 559.17 378.19 560.49 367.92 562.12 357.65 564.01 347.38 566.06 337.11 568.21 326.84 570.38 316.57 580.43 308.12 590.53 299.88 600.64 291.98 610.77 284.52 620.88 277.58 630.97 271.23 641.03 265.5 651.03 260.41 660.95 255.95 670.79 252.08 680.53 248.74 690.15 245.86 699.64 243.35 708.99 241.08 722.7 237.9 727.21 236.85" stroke-dasharray="2 3" transform="rotate(109.2, 711, 400)" opacity="0.87"></path><path d="M721.63 291.81Q732 302.96 742.11 313.79 751.99 324 761.65 333.35 771.15 341.66 780.5 348.79 789.77 354.72 798.99 359.48 794.3 373.44 790.42 387.4 787.61 401.36 786.08 415.32 785.92 429.28 787.15 443.24 789.68 457.2 793.34 471.16 783.88 480.71 774.49 488.98 765.13 495.84 755.75 501.27 746.29 505.36 736.71 508.27 726.99 510.26 717.07 511.66 703.01 499.18 689 487.04 675.08 475.59 661.29 465.14 647.66 455.92 634.21 448.07 620.97 441.65 607.95 436.6 605.62 423.17 604.01 409.74 603.23 396.3 603.33 382.87 604.31 369.44 606.09 356 608.56 342.57 611.54 329.14 624.93 320.98 638.49 314.03 652.2 308.28 666.01 303.63 679.9 299.92 693.83 296.9 714.69 293.06 721.63 291.81" stroke-dasharray="3 2" transform="rotate(117.60000000000001, 711, 400)" opacity="0.94"></path></g></svg>