<svg width="24" height="24" viewBox="0 0 24 24" fill="none" xmlns="http://www.w3.org/2000/svg">
<rect opacity="0.01" x="24" width="24" height="24" transform="rotate(90 24 0)" fill="#1A1A1A"/>
<path d="M17.56 21C17.4001 21.0006 17.2424 20.9629 17.1 20.89L12 18.22L6.90003 20.89C6.56217 21.0677 6.15263 21.0375 5.84446 20.8122C5.53629 20.5869 5.38327 20.2058 5.45003 19.83L6.45003 14.2L2.33003 10.2C2.06809 9.93859 1.97192 9.5539 2.08003 9.19999C2.19828 8.83741 2.51246 8.57366 2.89003 8.51999L8.59003 7.68999L11.1 2.55999C11.2671 2.215 11.6167 1.99588 12 1.99588C12.3834 1.99588 12.7329 2.215 12.9 2.55999L15.44 7.67999L21.14 8.50999C21.5176 8.56366 21.8318 8.82741 21.95 9.18999C22.0581 9.5439 21.962 9.92859 21.7 10.19L17.58 14.19L18.58 19.82C18.6529 20.2028 18.4968 20.5931 18.18 20.82C17.999 20.9469 17.7809 21.0102 17.56 21Z" fill="#7A5AF8"/>
</svg>
